<?xml version="1.0" standalone="no"?>
<!DOCTYPE svg PUBLIC "-//W3C//DTD SVG 20010904//EN"
 "http://www.w3.org/TR/2001/REC-SVG-20010904/DTD/svg10.dtd">
<svg version="1.0" xmlns="http://www.w3.org/2000/svg"
 width="150.000000pt" height="150.000000pt" viewBox="0 0 150.000000 150.000000"
 preserveAspectRatio="xMidYMid meet">

<g transform="translate(0.000000,150.000000) scale(0.100000,-0.100000)"
fill="#000000" stroke="none">
<path d="M605 1360 c-3 -5 -23 -14 -45 -20 -24 -6 -41 -18 -45 -30 -4 -11 -18
-22 -33 -26 -15 -3 -37 -7 -49 -10 -13 -2 -35 -22 -49 -44 -25 -37 -26 -45
-19 -103 11 -96 12 -147 3 -153 -4 -3 -8 -10 -8 -15 0 -6 4 -8 9 -5 5 4 7 -3
4 -14 -3 -11 -10 -23 -15 -26 -5 -3 3 -21 17 -41 15 -19 28 -41 29 -50 2 -9
10 -21 20 -28 16 -12 17 -35 1 -85 -7 -23 26 -60 54 -60 19 0 33 -30 22 -48
-3 -5 -102 -20 -219 -32 -203 -22 -212 -24 -206 -43 15 -49 35 -87 45 -87 5 0
7 -4 4 -10 -3 -5 -1 -10 5 -10 6 0 9 -4 5 -9 -6 -11 1 -16 37 -25 24 -5 27 -3
30 21 2 18 10 29 22 31 12 3 16 0 11 -8 -10 -17 15 -31 36 -19 10 5 15 16 12
28 -3 14 2 20 24 24 15 3 33 1 38 -3 6 -5 29 0 54 11 45 20 69 20 32 -1 -12
-6 -19 -15 -17 -19 3 -4 8 -41 12 -82 7 -86 9 -90 32 -83 16 5 16 5 0 -9 -10
-8 -18 -28 -18 -45 0 -24 7 -34 36 -51 32 -19 34 -23 20 -37 -22 -21 -20 -27
3 -14 17 9 22 5 37 -25 17 -36 50 -50 40 -17 -3 9 -8 44 -11 76 l-6 60 20 -23
c11 -12 17 -29 14 -37 -3 -10 2 -14 18 -14 19 0 21 -2 9 -10 -12 -8 -10 -10 8
-10 15 0 26 -7 29 -19 3 -13 11 -17 24 -14 11 3 18 11 15 18 -8 22 24 26 46 6
20 -19 20 -19 -21 -43 -22 -12 -41 -27 -41 -32 0 -13 186 0 254 19 77 20 129
46 118 57 -5 5 -22 3 -41 -3 -41 -14 -62 6 -30 29 11 7 17 17 14 22 -3 4 0 10
7 12 6 2 12 13 13 24 13 149 18 185 25 174 6 -9 10 -8 19 6 10 18 10 18 11 0
0 -11 2 -17 5 -14 8 7 -5 58 -14 55 -3 -1 -8 3 -10 8 -3 6 -11 16 -18 24 -18
18 -8 28 12 11 8 -7 15 -8 15 -3 0 13 -43 53 -57 53 -6 0 -18 11 -26 24 -15
22 -15 25 0 37 19 17 85 40 77 28 -3 -5 2 -9 11 -9 9 0 14 4 11 8 -10 16 79 1
91 -15 18 -24 25 -11 17 32 l-6 36 -78 -7 c-96 -8 -104 1 -56 60 25 31 36 55
37 82 1 22 5 43 8 49 3 5 5 18 6 27 0 10 4 17 9 17 14 -1 26 23 26 54 0 43
-30 126 -51 141 -10 7 -17 15 -14 18 3 3 -1 11 -10 18 -17 14 -21 35 -5 25 16
-10 11 31 -5 45 -8 7 -15 18 -15 25 0 18 -37 48 -49 40 -6 -3 -11 1 -11 10 0
10 5 14 13 9 9 -5 9 -4 0 6 -10 11 -15 11 -28 0 -14 -11 -19 -7 -16 12 0 4 -6
5 -15 1 -9 -3 -27 6 -45 23 -28 27 -31 28 -43 11 -17 -22 -63 -19 -69 5 -7 25
-53 41 -77 26 -14 -9 -22 -9 -34 1 -13 11 -16 11 -16 -2 0 -8 -8 -18 -17 -22
-15 -5 -16 -4 -5 6 6 7 12 17 12 21 0 11 -18 10 -25 -2z m415 -141 c0 -5 -4
-9 -10 -9 -5 0 -10 7 -10 16 0 8 5 12 10 9 6 -3 10 -10 10 -16z m-421 -250
c16 -46 14 -49 -18 -43 -16 3 -38 1 -51 -6 -28 -15 -35 -8 -20 22 34 65 72 76
89 27z m87 -47 c-3 -3 0 -10 8 -16 15 -13 30 -66 19 -67 -15 -1 -88 -1 -111 0
-22 1 -21 4 19 50 25 29 48 47 56 44 8 -3 11 -8 9 -11z m-174 -75 c2 -13 -2
-29 -9 -36 -9 -8 -12 -25 -8 -49 4 -28 3 -32 -4 -17 -11 23 -14 96 -5 119 8
21 20 12 26 -17z m172 -141 c-6 -16 -47 -26 -65 -16 -20 13 1 30 36 30 25 0
33 -4 29 -14z m-132 -28 c-7 -7 -12 -8 -12 -2 0 14 12 26 19 19 2 -3 -1 -11
-7 -17z m-85 -200 c-3 -7 -5 -2 -5 12 0 14 2 19 5 13 2 -7 2 -19 0 -25z m8
-168 c3 -5 1 -10 -4 -10 -6 0 -11 5 -11 10 0 6 2 10 4 10 3 0 8 -4 11 -10z
m400 -88 c-3 -3 -11 0 -18 7 -9 10 -8 11 6 5 10 -3 15 -9 12 -12z m68 -3 c3
-13 1 -19 -6 -16 -15 5 -22 37 -9 37 5 0 12 -9 15 -21z m57 1 c0 -5 -7 -10
-16 -10 -8 0 -12 5 -9 10 3 6 10 10 16 10 5 0 9 -4 9 -10z m-71 -62 c-11 -20
-30 -20 -37 0 -2 7 3 12 12 12 9 0 16 5 16 11 0 5 -5 7 -12 3 -7 -4 -8 -3 -4
5 14 22 38 -7 25 -31z"/>
<path d="M1123 563 c-45 -4 -52 -13 -29 -32 22 -19 96 5 96 30 0 5 -6 8 -12 7
-7 -1 -32 -3 -55 -5z"/>
<path d="M1159 351 c10 -30 17 -42 19 -31 3 16 -23 80 -32 80 -1 0 5 -22 13
-49z"/>
<path d="M1045 350 c3 -5 8 -10 11 -10 2 0 4 5 4 10 0 6 -5 10 -11 10 -5 0 -7
-4 -4 -10z"/>
<path d="M1182 230 c0 -14 2 -19 5 -12 2 6 2 18 0 25 -3 6 -5 1 -5 -13z"/>
<path d="M1205 220 c3 -5 8 -10 11 -10 2 0 4 5 4 10 0 6 -5 10 -11 10 -5 0 -7
-4 -4 -10z"/>
<path d="M1072 145 c0 -16 2 -22 5 -12 2 9 2 23 0 30 -3 6 -5 -1 -5 -18z"/>
<path d="M395 140 c3 -5 13 -10 21 -10 8 0 12 5 9 10 -3 6 -13 10 -21 10 -8 0
-12 -4 -9 -10z"/>
<path d="M495 100 c-3 -5 -1 -10 4 -10 6 0 11 5 11 10 0 6 -2 10 -4 10 -3 0
-8 -4 -11 -10z"/>
<path d="M718 103 c7 -3 16 -2 19 1 4 3 -2 6 -13 5 -11 0 -14 -3 -6 -6z"/>
</g>
</svg>
